<?xml version="1.0" encoding="utf-8"?>
<!-- Generator: Adobe Illustrator 14.0.0, SVG Export Plug-In . SVG Version: 6.00 Build 43363)  -->
<!DOCTYPE svg PUBLIC "-//W3C//DTD SVG 1.1//EN" "http://www.w3.org/Graphics/SVG/1.1/DTD/svg11.dtd">
<svg version="1.1" id="Layer_1" xmlns="http://www.w3.org/2000/svg" xmlns:xlink="http://www.w3.org/1999/xlink" x="0px" y="0px"
	 width="16px" height="16px" viewBox="0 0 16 16" enable-background="new 0 0 16 16" xml:space="preserve">
<g>
	<path fill="#434342" d="M14.519,1.481h-2.074V0.889c0-0.49-0.398-0.889-0.889-0.889h-0.297c-0.49,0-0.889,0.398-0.889,0.889v0.593
		H5.629V0.889C5.629,0.398,5.23,0,4.741,0H4.444c-0.49,0-0.889,0.398-0.889,0.889v0.593H1.481C0.665,1.481,0,2.146,0,2.963v11.556
		C0,15.335,0.665,16,1.481,16h13.037C15.335,16,16,15.335,16,14.519V2.963C16,2.146,15.335,1.481,14.519,1.481z M1.481,2.074h2.074
		v0.593c0,0.49,0.398,0.889,0.889,0.889h0.889c0.164,0,0.296-0.133,0.296-0.297c0-0.163-0.133-0.296-0.296-0.296H4.444
		c-0.164,0-0.296-0.133-0.296-0.296V0.889c0-0.163,0.133-0.296,0.296-0.296h0.296c0.163,0,0.296,0.133,0.296,0.296v0.593
		c-0.164,0-0.296,0.133-0.296,0.297c0,0.163,0.132,0.296,0.296,0.296h5.333v0.593c0,0.49,0.398,0.889,0.889,0.889h0.889
		c0.164,0,0.297-0.133,0.297-0.297c0-0.163-0.133-0.296-0.297-0.296h-0.889c-0.163,0-0.296-0.133-0.296-0.296V0.889
		c0-0.163,0.133-0.296,0.296-0.296h0.297c0.163,0,0.296,0.133,0.296,0.296v0.593c-0.163,0-0.296,0.133-0.296,0.297
		c0,0.163,0.133,0.296,0.296,0.296h2.667c0.49,0,0.889,0.398,0.889,0.889v2.37H0.592v-2.37C0.592,2.473,0.991,2.074,1.481,2.074z
		 M14.519,15.407H1.481c-0.49,0-0.889-0.398-0.889-0.889V5.926h14.815v8.593C15.407,15.009,15.009,15.407,14.519,15.407z"/>
</g>
</svg>
